<?xml version="1.0" encoding="UTF-8"?>
<svg id="Layer_1" xmlns="http://www.w3.org/2000/svg" version="1.1" viewBox="0 0 2372.72 293.7">
  <!-- Generator: Adobe Illustrator 29.8.1, SVG Export Plug-In . SVG Version: 2.1.1 Build 2)  -->
  <defs>
    <style>
      .st0 {
        fill: #c5ab8d;
      }
    </style>
  </defs>
  <path class="st0" d="M309.67,146.8c0,81.12-65.69,146.82-146.82,146.85H0v-49.83h162.85c53.62-.03,96.99-43.4,96.99-97.01s-43.37-96.96-96.99-96.98H0V0h162.85c81.12.03,146.82,65.78,146.82,146.82v-.02Z"/>
  <g>
    <rect class="st0" x="825.1" width="49.83" height="293.66"/>
    <rect class="st0" x="944.35" width="49.83" height="146.83"/>
    <rect class="st0" x="1061.81" width="49.83" height="293.66"/>
  </g>
  <path class="st0" d="M567.91-.02c-.35,0-.7,0-1.05.03-1.25,0-2.47.03-3.7.06h-.09c-79.35,2.01-143.03,66.98-143.03,146.76s65.72,146.85,146.82,146.85c.35,0,.7,0,1.05-.03,1.25,0,2.47-.03,3.7-.06h.09c1.31-.03,2.62-.09,3.93-.17,77.51-3.99,139.13-68.11,139.13-146.58S649.01-.01,567.91-.01h0ZM566.86,49.84h3.55c52.45,1.34,94.48,44.27,94.48,96.99s-43.37,96.99-96.99,96.99h-3.55c-52.42-1.34-94.48-44.21-94.48-96.99s43.4-96.99,96.99-96.99Z"/>
  <g>
    <polygon class="st0" points="1944.21 292.86 1943.39 293.7 1875.25 293.7 1753.38 171.8 1700.38 171.8 1700.38 293.7 1650.55 293.7 1650.55 121.94 1773.38 121.94 1773.38 122.23 1773.47 122.14 1944.21 292.86"/>
    <rect class="st0" x="1650.54" y=".03" width="293.66" height="49.83"/>
  </g>
  <polygon class="st0" points="1540.14 293.64 1486.12 293.64 1381.1 57.73 1276.05 293.64 1222 293.64 1352.72 .01 1409.45 .01 1540.14 293.64"/>
  <polygon class="st0" points="2372.72 293.7 2318.67 293.7 2213.65 57.79 2108.63 293.7 2054.58 293.7 2185.27 .04 2242 .04 2372.72 293.7"/>
</svg>