<?xml version="1.0" encoding="UTF-8"?>
<svg id="Layer_1" xmlns="http://www.w3.org/2000/svg" version="1.1" viewBox="0 0 3000 3000">
  <!-- Generator: Adobe Illustrator 29.8.1, SVG Export Plug-In . SVG Version: 2.1.1 Build 2)  -->
  <defs>
    <style>
      .st0 {
        fill: #c5ab8d;
      }
    </style>
  </defs>
  <path class="st0" d="M623.31,1499.96c0,81.12-65.69,146.82-146.82,146.85h-162.85v-49.83h162.85c53.62-.03,96.99-43.4,96.99-97.01s-43.37-96.96-96.99-96.98h-162.85v-49.83h162.85c81.12.03,146.82,65.78,146.82,146.82Z"/>
  <g>
    <rect class="st0" x="1138.74" y="1353.16" width="49.83" height="293.66"/>
    <rect class="st0" x="1257.99" y="1353.16" width="49.83" height="146.83"/>
    <rect class="st0" x="1375.45" y="1353.16" width="49.83" height="293.66"/>
  </g>
  <path class="st0" d="M881.55,1353.14c-.35,0-.7,0-1.05.03-1.25,0-2.47.03-3.7.06h-.09c-79.35,2.01-143.03,66.98-143.03,146.76s65.72,146.85,146.82,146.85c.35,0,.7,0,1.05-.03,1.25,0,2.47-.03,3.7-.06h.09c1.31-.03,2.62-.09,3.93-.17,77.51-3.99,139.13-68.11,139.13-146.58s-65.75-146.85-146.85-146.85ZM880.5,1403h3.55c52.45,1.34,94.48,44.27,94.48,96.99s-43.37,96.99-96.99,96.99h-3.55c-52.42-1.34-94.48-44.21-94.48-96.99s43.4-96.99,96.99-96.99Z"/>
  <g>
    <polygon class="st0" points="2257.85 1646.02 2257.03 1646.86 2188.89 1646.86 2067.02 1524.96 2014.02 1524.96 2014.02 1646.86 1964.19 1646.86 1964.19 1475.1 2087.02 1475.1 2087.02 1475.39 2087.11 1475.3 2257.85 1646.02"/>
    <rect class="st0" x="2086.1" y="1231.28" width="49.83" height="293.66" transform="translate(3489.12 -732.91) rotate(90)"/>
  </g>
  <polygon class="st0" points="1853.78 1646.8 1799.76 1646.8 1694.74 1410.89 1589.69 1646.8 1535.64 1646.8 1666.36 1353.17 1723.09 1353.17 1853.78 1646.8"/>
  <polygon class="st0" points="2686.36 1646.86 2632.31 1646.86 2527.29 1410.95 2422.27 1646.86 2368.22 1646.86 2498.91 1353.2 2555.64 1353.2 2686.36 1646.86"/>
</svg>