<?xml version="1.0" encoding="UTF-8"?>
<svg id="Layer_1" xmlns="http://www.w3.org/2000/svg" version="1.1" viewBox="0 0 3000 3000">
  <!-- Generator: Adobe Illustrator 29.8.1, SVG Export Plug-In . SVG Version: 2.1.1 Build 2)  -->
  <defs>
    <style>
      .st0 {
        fill: #c5ab8d;
      }
    </style>
  </defs>
  <g>
    <path class="st0" d="M623.31,1415.75c0,81.12-65.69,146.82-146.82,146.85h-162.85v-49.83h162.85c53.62-.03,96.99-43.4,96.99-97.01s-43.37-96.96-96.99-96.98h-162.85v-49.83h162.85c81.12.03,146.82,65.78,146.82,146.82Z"/>
    <g>
      <rect class="st0" x="1138.74" y="1268.95" width="49.83" height="293.66"/>
      <rect class="st0" x="1257.99" y="1268.95" width="49.83" height="146.83"/>
      <rect class="st0" x="1375.45" y="1268.95" width="49.83" height="293.66"/>
    </g>
    <path class="st0" d="M881.55,1268.93c-.35,0-.7,0-1.05.03-1.25,0-2.47.03-3.7.06h-.09c-79.35,2.01-143.03,66.98-143.03,146.76s65.72,146.85,146.82,146.85c.35,0,.7,0,1.05-.03,1.25,0,2.47-.03,3.7-.06h.09c1.31-.03,2.62-.09,3.93-.17,77.51-3.99,139.13-68.11,139.13-146.58s-65.75-146.85-146.85-146.85ZM880.5,1318.79h3.55c52.45,1.34,94.48,44.27,94.48,96.99s-43.37,96.99-96.99,96.99h-3.55c-52.42-1.34-94.48-44.21-94.48-96.99s43.4-96.99,96.99-96.99Z"/>
    <g>
      <polygon class="st0" points="2257.85 1561.81 2257.03 1562.65 2188.89 1562.65 2067.02 1440.75 2014.02 1440.75 2014.02 1562.65 1964.19 1562.65 1964.19 1390.89 2087.02 1390.89 2087.02 1391.18 2087.11 1391.1 2257.85 1561.81"/>
      <rect class="st0" x="2086.1" y="1147.07" width="49.83" height="293.66" transform="translate(3404.92 -817.12) rotate(90)"/>
    </g>
    <polygon class="st0" points="1853.78 1562.6 1799.76 1562.6 1694.74 1326.68 1589.69 1562.6 1535.64 1562.6 1666.36 1268.96 1723.09 1268.96 1853.78 1562.6"/>
    <polygon class="st0" points="2686.36 1562.65 2632.31 1562.65 2527.29 1326.74 2422.27 1562.65 2368.22 1562.65 2498.91 1268.99 2555.64 1268.99 2686.36 1562.65"/>
  </g>
  <g>
    <path class="st0" d="M1227.13,1657.71h8.76v29.34h35.44v-29.34h8.76v71.07h-8.76v-34.01h-35.44v34.01h-8.76v-71.07Z"/>
    <path class="st0" d="M1460.64,1693.15c0,20.96-17.15,37.92-38.77,37.92s-38.87-16.96-38.87-37.92,17.15-37.73,38.87-37.73,38.77,16.86,38.77,37.73ZM1391.85,1693.05c0,16.1,13.43,30.01,30.01,30.01s29.91-13.81,29.91-30.01-13.34-29.63-29.91-29.63-30.01,13.91-30.01,29.63Z"/>
    <path class="st0" d="M1572.29,1674v54.78h-8.76v-71.07h9.34l25.53,44.3,24.86-44.3h9.15v71.07h-8.76v-54.68l-24.2,42.58h-2.29l-24.86-42.68Z"/>
    <path class="st0" d="M1737.58,1657.71h35.53v7.62h-26.77v22.01h24.77v7.62h-24.77v26.2h27.53v7.62h-36.3v-71.07Z"/>
  </g>
</svg>